<svg width="22" height="24" viewBox="0 0 22 24" fill="none" xmlns="http://www.w3.org/2000/svg">
<path d="M20.4383 11.3575L11.2483 20.5475C10.1225 21.6734 8.59552 22.3059 7.00334 22.3059C5.41115 22.3059 3.88418 21.6734 2.75834 20.5475C1.63249 19.4217 1 17.8947 1 16.3025C1 14.7104 1.63249 13.1834 2.75834 12.0575L11.9483 2.86754C12.6989 2.11697 13.7169 1.69531 14.7783 1.69531C15.8398 1.69531 16.8578 2.11697 17.6083 2.86754C18.3589 3.6181 18.7806 4.63608 18.7806 5.69754C18.7806 6.75899 18.3589 7.77697 17.6083 8.52754L8.40834 17.7175C8.03306 18.0928 7.52406 18.3036 6.99334 18.3036C6.46261 18.3036 5.95362 18.0928 5.57834 17.7175C5.20306 17.3423 4.99222 16.8333 4.99222 16.3025C4.99222 15.7718 5.20306 15.2628 5.57834 14.8875L14.0683 6.40754" stroke="#6F6F6F" stroke-width="2" stroke-linecap="round" stroke-linejoin="round"/>
</svg>
